<svg xmlns="http://www.w3.org/2000/svg" width="16" height="16">
  <defs>
    <!-- M치scara: a 치rea branca ser치 mantida, a preta ser치 cortada -->
    <mask id="mask-cut">
      <rect width="6" height="6" fill="white" x ="0" y ="0"/>
      <rect width="7" height="10" fill="white" x ="0" y ="5"/>
      <rect width="9" height="8" fill="white" x ="6" y ="0"/>
    </mask>
  </defs>

  <path mask="url(#mask-cut)" fill="#8eef97"
        d="M1 1v4h14V1H1zm5 1h4l-2 2-2-2zM2 6a1 1 0 0 0-1 1v7a1 1 0 0 0 1 1h12a1 1 0 0 0 1-1V7a1 1 0 0 0-1-1H2zm1 2h10v2H3V8zm0 3h10v2H3v-2z"/>

  <g transform="translate(7,7) scale(0.6)">
    <path fill="none" stroke="#8eef97" stroke-linejoin="round" stroke-width="2" d="M3 10v3h11V5H9.5l-1-2H3v3"/>
    <path fill="#e0e0e0" d="M6 11V9H1V7h5V5l3 3z"/>
  </g>
</svg>
